<svg xmlns="http://www.w3.org/2000/svg" width="58" height="58" viewBox="1573 716 58 58"><defs><marker id="h190834" viewBox="0 0 10 10" refX="8" refY="5" markerWidth="16" markerHeight="16" markerUnits="userSpaceOnUse" orient="auto-start-reverse"><path d="M0,0 L10,5 L0,10 z" fill="#190834"/></marker><marker id="h4C1D95" viewBox="0 0 10 10" refX="8" refY="5" markerWidth="16" markerHeight="16" markerUnits="userSpaceOnUse" orient="auto-start-reverse"><path d="M0,0 L10,5 L0,10 z" fill="#4C1D95"/></marker><marker id="h8A7BA8" viewBox="0 0 10 10" refX="8" refY="5" markerWidth="16" markerHeight="16" markerUnits="userSpaceOnUse" orient="auto-start-reverse"><path d="M0,0 L10,5 L0,10 z" fill="#8A7BA8"/></marker><marker id="hC9BCEB" viewBox="0 0 10 10" refX="8" refY="5" markerWidth="16" markerHeight="16" markerUnits="userSpaceOnUse" orient="auto-start-reverse"><path d="M0,0 L10,5 L0,10 z" fill="#C9BCEB"/></marker></defs><svg x="1580" y="723" width="44" height="44" viewBox="0 0 256 256" fill="#4C1D95"><path d="M224,104a8,8,0,0,1-16,0V59.32l-66.33,66.34a8,8,0,0,1-11.32-11.32L196.68,48H152a8,8,0,0,1,0-16h64a8,8,0,0,1,8,8Zm-40,24a8,8,0,0,0-8,8v72H48V80h72a8,8,0,0,0,0-16H48A16,16,0,0,0,32,80V208a16,16,0,0,0,16,16H176a16,16,0,0,0,16-16V136A8,8,0,0,0,184,128Z"/></svg></svg>