<svg xmlns="http://www.w3.org/2000/svg" width="60" height="56" viewBox="588 828 60 56"><defs><marker id="h190834" viewBox="0 0 10 10" refX="8" refY="5" markerWidth="16" markerHeight="16" markerUnits="userSpaceOnUse" orient="auto-start-reverse"><path d="M0,0 L10,5 L0,10 z" fill="#190834"/></marker><marker id="h4C1D95" viewBox="0 0 10 10" refX="8" refY="5" markerWidth="16" markerHeight="16" markerUnits="userSpaceOnUse" orient="auto-start-reverse"><path d="M0,0 L10,5 L0,10 z" fill="#4C1D95"/></marker><marker id="h8A7BA8" viewBox="0 0 10 10" refX="8" refY="5" markerWidth="16" markerHeight="16" markerUnits="userSpaceOnUse" orient="auto-start-reverse"><path d="M0,0 L10,5 L0,10 z" fill="#8A7BA8"/></marker><marker id="hC9BCEB" viewBox="0 0 10 10" refX="8" refY="5" markerWidth="16" markerHeight="16" markerUnits="userSpaceOnUse" orient="auto-start-reverse"><path d="M0,0 L10,5 L0,10 z" fill="#C9BCEB"/></marker></defs><svg x="596" y="834" width="44" height="44" viewBox="0 0 256 256" fill="#4C1D95"><path d="M128,128a8,8,0,0,1-3,6.25l-40,32a8,8,0,1,1-10-12.5L107.19,128,75,102.25a8,8,0,1,1,10-12.5l40,32A8,8,0,0,1,128,128Zm48,24H136a8,8,0,0,0,0,16h40a8,8,0,0,0,0-16Zm56-96V200a16,16,0,0,1-16,16H40a16,16,0,0,1-16-16V56A16,16,0,0,1,40,40H216A16,16,0,0,1,232,56ZM216,200V56H40V200H216Z"/></svg></svg>