<svg xmlns="http://www.w3.org/2000/svg" width="64" height="58" viewBox="1298 574 64 58"><defs><marker id="h190834" viewBox="0 0 10 10" refX="8" refY="5" markerWidth="16" markerHeight="16" markerUnits="userSpaceOnUse" orient="auto-start-reverse"><path d="M0,0 L10,5 L0,10 z" fill="#190834"/></marker><marker id="h4C1D95" viewBox="0 0 10 10" refX="8" refY="5" markerWidth="16" markerHeight="16" markerUnits="userSpaceOnUse" orient="auto-start-reverse"><path d="M0,0 L10,5 L0,10 z" fill="#4C1D95"/></marker><marker id="h8A7BA8" viewBox="0 0 10 10" refX="8" refY="5" markerWidth="16" markerHeight="16" markerUnits="userSpaceOnUse" orient="auto-start-reverse"><path d="M0,0 L10,5 L0,10 z" fill="#8A7BA8"/></marker><marker id="hC9BCEB" viewBox="0 0 10 10" refX="8" refY="5" markerWidth="16" markerHeight="16" markerUnits="userSpaceOnUse" orient="auto-start-reverse"><path d="M0,0 L10,5 L0,10 z" fill="#C9BCEB"/></marker></defs><svg x="1308" y="578" width="44" height="44" viewBox="0 0 256 256" fill="#FFFFFF"><path d="M232,48H160a40,40,0,0,0-32,16A40,40,0,0,0,96,48H24a8,8,0,0,0-8,8V200a8,8,0,0,0,8,8H96a24,24,0,0,1,24,24,8,8,0,0,0,16,0,24,24,0,0,1,24-24h72a8,8,0,0,0,8-8V56A8,8,0,0,0,232,48ZM96,192H32V64H96a24,24,0,0,1,24,24V200A39.81,39.81,0,0,0,96,192Zm128,0H160a39.81,39.81,0,0,0-24,8V88a24,24,0,0,1,24-24h64ZM160,88h40a8,8,0,0,1,0,16H160a8,8,0,0,1,0-16Zm48,40a8,8,0,0,1-8,8H160a8,8,0,0,1,0-16h40A8,8,0,0,1,208,128Zm0,32a8,8,0,0,1-8,8H160a8,8,0,0,1,0-16h40A8,8,0,0,1,208,160Z"/></svg></svg>